<svg width="829" height="497" viewBox="0 0 829 497" fill="none" xmlns="http://www.w3.org/2000/svg">
<path opacity="0.25" d="M549.257 88.7089C443.679 4.97679 296.796 1.55543 189.638 83.1385C132.991 126.266 89.0753 192.248 97.0656 292.713C99.8893 328.249 107.749 357.401 119.216 381.266C165.66 478.012 356.418 474.287 367.012 474.273C373.875 474.266 380.739 474.423 387.602 474.746C411.643 475.882 435.558 478.992 459.117 484.049C492.706 491.252 535.468 494.872 573.674 481.228C580.166 478.921 586.473 476.099 592.54 472.788C613.536 461.308 637.04 450.337 650.781 423.107C661.107 402.671 668.63 377.046 672.251 345.129C685.429 228.894 619.582 144.483 549.257 88.7089Z" fill="#FDDB3A"/>
<path d="M57.31 466.351L106.202 396.332L57.2852 473.968L57.2566 481.934C53.77 481.905 50.3186 481.792 46.9024 481.595C46.8868 479.786 51.0425 380.26 50.8658 378.459C51.107 378.391 51.2423 369.046 51.338 368.637L0.259735 292.121L51.3929 361.395L51.5453 363.443L54.5788 286.117L10.6715 206.932L54.9261 272.53C54.9425 271.478 57.0207 112.71 57.0411 111.731C57.0537 112.251 58.0075 238.078 58.0145 238.609L100.007 187.961L57.9742 249.492L57.7595 318.698L96.7277 251.775C48.0958 349.372 58.8583 315.219 57.6162 367.355L114.22 274.169L57.5678 380.779L57.31 466.351Z" fill="#3F3D56"/>
<path d="M805.284 475.857L825.659 446.678L805.274 479.031L805.262 482.351C803.809 482.339 802.371 482.292 800.947 482.21C800.941 481.456 802.672 439.981 802.599 439.231C802.699 439.202 802.756 435.308 802.796 435.137L781.51 403.251L802.818 432.12L802.882 432.973L804.146 400.749L785.849 367.751L804.291 395.087C804.298 394.649 805.164 328.487 805.172 328.078C805.177 328.295 805.575 380.73 805.578 380.951L823.077 359.846L805.561 385.487L805.472 414.327L821.711 386.438C801.444 427.109 805.929 412.877 805.412 434.603L829 395.77L805.392 440.197L805.284 475.857Z" fill="#3F3D56"/>
<path d="M413.145 497C641.319 497 826.29 489.777 826.29 480.866C826.29 471.956 641.319 464.732 413.145 464.732C184.971 464.732 0 471.956 0 480.866C0 489.777 184.971 497 413.145 497Z" fill="#E5E5E5"/>
<path d="M613.551 190.557H141.826V470.879H613.551V190.557Z" fill="#FDDB3A"/>
<path d="M258.57 190.557C258.088 220.055 245.994 248.183 224.896 268.874C203.798 289.566 175.386 301.163 145.788 301.166C144.462 301.166 143.144 301.143 141.826 301.097V190.557H258.57Z" fill="#FFFED7"/>
<path d="M400.764 470.879H355.898C357.586 466.303 360.643 462.354 364.654 459.564C368.666 456.774 373.439 455.278 378.331 455.278C383.223 455.278 387.996 456.774 392.008 459.564C396.02 462.354 399.076 466.303 400.764 470.879Z" fill="#FDDB3A"/>
<path d="M613.551 325.882V420.304C601.389 419.711 589.922 414.478 581.525 405.69C573.128 396.901 568.444 385.229 568.444 373.093C568.444 360.956 573.128 349.285 581.525 340.496C589.922 331.707 601.389 326.474 613.551 325.882Z" fill="#FFFED7"/>
<path d="M526.891 292.419H229.304C221.628 292.419 215.405 298.621 215.405 306.272V306.272C215.405 313.923 221.628 320.125 229.304 320.125H526.891C534.567 320.125 540.789 313.923 540.789 306.272C540.789 298.621 534.567 292.419 526.891 292.419Z" fill="white"/>
<path d="M526.891 347.016H229.304C221.628 347.016 215.405 353.218 215.405 360.869V360.869C215.405 368.52 221.628 374.722 229.304 374.722H526.891C534.567 374.722 540.789 368.52 540.789 360.869C540.789 353.218 534.567 347.016 526.891 347.016Z" fill="white"/>
<path d="M526.891 401.613H440.607C432.931 401.613 426.709 407.816 426.709 415.466C426.709 423.117 432.931 429.319 440.607 429.319H526.891C534.567 429.319 540.789 423.117 540.789 415.466C540.789 407.816 534.567 401.613 526.891 401.613Z" fill="white"/>
<path d="M688.358 86.1393C688.358 86.1393 701.329 91.1673 702.05 107.688C702.771 124.209 698.447 170.179 698.447 170.179C698.447 170.179 714.301 193.164 702.05 199.629C689.799 206.094 688.358 173.771 688.358 173.771L673.945 105.533C673.945 105.533 682.593 85.421 688.358 86.1393Z" fill="#A0616A"/>
<path d="M555.761 139.293C555.761 139.293 524.773 159.405 523.332 143.602C521.891 127.8 532.7 66.0273 532.7 66.0273C532.7 66.0273 534.142 39.4506 549.275 45.9152C564.408 52.3798 544.951 74.6468 544.951 74.6468L547.113 124.927L561.526 124.209L555.761 139.293Z" fill="#A0616A"/>
<path d="M605.485 157.968C605.485 157.968 510.36 122.772 515.405 163.714C520.449 204.657 544.951 256.374 544.951 256.374L553.599 270.021H571.615L560.085 196.037C560.085 196.037 601.161 219.023 613.412 215.431C613.412 215.431 629.266 321.02 635.031 328.921C640.796 336.822 650.885 432.354 650.885 432.354L660.253 443.847H678.269V282.232C678.269 282.232 709.257 181.672 685.476 176.644C661.694 171.616 605.485 157.968 605.485 157.968Z" fill="#2F2E41"/>
<path d="M551.437 260.684C551.437 260.684 547.113 252.782 539.907 260.684C532.7 268.585 515.405 277.922 515.405 277.922C515.405 277.922 477.932 286.542 508.199 293.725C538.465 300.908 542.069 293.725 542.069 293.725C542.069 293.725 547.113 295.161 551.437 296.598C555.761 298.035 583.866 293.007 583.866 288.697C583.866 284.387 574.324 258.631 570.447 262.53C566.57 266.43 551.437 260.684 551.437 260.684Z" fill="#2F2E41"/>
<path d="M661.634 436.737C661.634 436.737 651.009 428.015 648.508 430.507C646.008 432.999 632.883 449.82 632.883 449.82C632.883 449.82 597.881 476.609 629.758 480.969C661.634 485.33 659.759 473.494 659.759 473.494H669.759C671.009 473.494 687.885 466.018 687.26 462.903C686.635 459.788 679.135 434.388 676.635 436.185C674.135 437.983 661.634 436.737 661.634 436.737Z" fill="#2F2E41"/>
<path d="M565.129 58.8444C578.661 58.8444 589.631 47.9103 589.631 34.4226C589.631 20.9348 578.661 10.0007 565.129 10.0007C551.597 10.0007 540.627 20.9348 540.627 34.4226C540.627 47.9103 551.597 58.8444 565.129 58.8444Z" fill="#A0616A"/>
<path d="M582.424 31.5494C582.424 31.5494 601.161 47.3518 614.132 47.3518C627.104 47.3518 595.396 76.8017 595.396 76.8017L567.291 51.6615L582.424 31.5494Z" fill="#A0616A"/>
<path d="M589.631 76.8017L589.07 71.1428C589.07 71.1428 603.323 45.9153 607.647 43.7604C611.97 41.6055 614.853 41.6055 614.853 41.6055C614.853 41.6055 629.266 26.5214 645.12 34.4226C660.974 42.3238 698.447 92.604 698.447 92.604C698.447 92.604 671.783 94.7589 675.386 115.589C675.386 115.589 702.05 183.827 694.844 184.545C687.637 185.263 666.018 180.235 643.679 190.291C621.339 200.347 611.25 193.883 611.25 193.883L599.72 156.532C599.72 156.532 578.101 144.321 578.821 133.546L547.473 147.553L550.356 120.976L569.453 99.0686C569.453 99.0686 565.85 96.1954 589.631 76.8017Z" fill="#FDDB3A"/>
<path d="M542.591 37.0628C541.617 38.1415 540.396 38.9701 539.033 39.4781C537.637 39.8704 535.879 39.3893 535.323 38.0546L536.359 36.7106L533.253 34.7869L534.606 33.2041L532.105 30.4965L534.079 28.9351L530.32 26.2552C535.192 18.3307 540.461 10.3069 548.154 5.0537C555.846 -0.199507 566.595 -2.06616 574.475 2.90267C578.566 5.48242 581.459 9.5769 583.777 13.8136C588.437 22.334 592.545 30.6395 593.152 40.3251C590.224 37.4835 585.95 35.8822 583.023 33.0405C581.726 31.6694 580.258 30.471 578.653 29.4752C575.591 27.754 571.927 27.6018 568.499 26.8254C565.617 26.1725 563.746 24.8775 561.565 23.0262C558.971 20.8238 558.866 21.6754 556.246 24.155C551.697 28.4606 547.145 32.7633 542.591 37.0628Z" fill="#2F2E41"/>
</svg>
