<svg width="999" height="877" viewBox="0 0 999 877" fill="none" xmlns="http://www.w3.org/2000/svg">
<path d="M1210.27 495.763C1210.27 495.763 1161.54 651.963 1060.66 740.155C959.78 828.347 886.812 766.326 806.756 848.531C726.7 930.736 840.747 994.316 740.437 1068.97C640.128 1143.63 534.828 1036.43 405.52 1147.16C276.213 1257.9 284.017 1650.86 284.017 1650.86" stroke="#F2F0D6"/>
<path d="M1189.68 455.019C1189.68 455.019 1140.95 611.219 1040.07 699.412C939.189 787.604 866.221 725.582 786.165 807.788C706.109 889.993 820.156 953.573 719.846 1028.23C619.537 1102.89 514.237 995.682 384.93 1106.42C255.622 1217.16 202.615 1471.19 202.615 1471.19" stroke="#F2F0D6"/>
<path d="M1172.91 419.412C1172.91 419.412 1124.18 575.613 1023.3 663.805C922.421 751.997 849.453 689.976 769.398 772.181C689.342 854.386 803.388 917.966 703.079 992.625C602.769 1067.28 497.47 960.075 368.162 1070.81C238.854 1181.55 185.848 1435.58 185.848 1435.58" stroke="#F2F0D6"/>
<path d="M1146.91 390.487C1146.91 390.487 1098.17 546.687 997.293 634.879C896.415 723.072 823.447 661.05 743.391 743.255C663.336 825.461 777.382 889.041 677.072 963.699C576.763 1038.36 471.463 931.15 342.156 1041.89C212.848 1152.63 159.841 1406.66 159.841 1406.66" stroke="#F2F0D6"/>
<path d="M1133.42 346.99C1133.42 346.99 1084.68 503.19 983.803 591.382C882.925 679.574 809.957 617.553 729.901 699.758C649.846 781.963 763.892 845.543 663.582 920.202C563.273 994.861 457.973 887.652 328.666 998.392C199.358 1109.13 146.351 1363.16 146.351 1363.16" stroke="#F2F0D6"/>
<path d="M1121.93 303.562C1121.93 303.562 1073.19 459.763 972.312 547.955C871.433 636.147 798.465 574.125 718.41 656.331C638.354 738.536 752.401 802.116 652.091 876.774C551.781 951.433 446.482 844.225 317.174 954.965C187.867 1065.7 134.86 1319.73 134.86 1319.73" stroke="#F2F0D6"/>
<path d="M1103.58 255.893C1103.58 255.893 1054.84 412.093 953.964 500.285C853.086 588.477 780.118 526.456 700.062 608.661C620.006 690.866 734.053 754.446 633.743 829.105C533.434 903.764 428.134 796.556 298.827 907.295C169.519 1018.04 116.512 1272.06 116.512 1272.06" stroke="#F2F0D6"/>
<path d="M1086.19 209.258C1086.19 209.258 1037.46 365.458 936.581 453.65C835.703 541.842 762.735 479.821 682.679 562.026C602.623 644.231 716.67 707.811 616.36 782.47C516.051 857.129 410.751 749.921 281.443 860.66C152.136 971.4 99.1292 1225.43 99.1292 1225.43" stroke="#F2F0D6"/>
<path d="M1071.6 168.724C1071.6 168.724 1022.87 324.924 921.987 413.116C821.108 501.308 748.141 439.287 668.085 521.492C588.029 603.697 702.076 667.277 601.766 741.936C501.456 816.595 396.157 709.387 266.849 820.126C137.542 930.866 84.5349 1184.89 84.5349 1184.89" stroke="#F2F0D6"/>
<path d="M1055.43 116.127C1055.43 116.127 1006.69 272.328 905.812 360.52C804.934 448.712 731.966 386.691 651.911 468.896C571.855 551.101 685.901 614.681 585.592 689.34C485.282 763.998 379.982 656.79 250.675 767.53C121.367 878.269 68.3606 1132.3 68.3606 1132.3" stroke="#F2F0D6"/>
<path d="M1037.59 82.4843C1037.59 82.4843 988.854 238.685 887.976 326.877C787.097 415.069 714.13 353.048 634.074 435.253C554.018 517.458 668.065 581.038 567.755 655.697C467.445 730.355 362.146 623.147 232.838 733.887C103.531 844.626 50.524 1098.66 50.524 1098.66" stroke="#F2F0D6"/>
<path d="M1008.28 33.4316C1008.28 33.4316 959.548 189.632 858.67 277.824C757.792 366.016 684.824 303.995 604.768 386.2C524.712 468.405 638.759 531.985 538.449 606.644C438.14 681.303 332.84 574.094 203.532 684.834C74.2248 795.574 21.218 1049.6 21.218 1049.6" stroke="#F2F0D6"/>
</svg>
